<?xml version="1.0" encoding="UTF-8"?>
<svg version="1.1" xmlns="http://www.w3.org/2000/svg" width="1024" height="453">
<path d="M0 0 C337.92 0 675.84 0 1024 0 C1024 149.49 1024 298.98 1024 453 C686.08 453 348.16 453 0 453 C0 303.51 0 154.02 0 0 Z " fill="#FDFDFD" transform="translate(0,0)"/>
<path d="M0 0 C1.14984375 0.00064453 2.2996875 0.00128906 3.484375 0.00195312 C4.68578125 0.01806641 5.8871875 0.03417969 7.125 0.05078125 C8.32640625 0.04755859 9.5278125 0.04433594 10.765625 0.04101562 C19.72446075 0.09625508 19.72446075 0.09625508 23.125 2.36328125 C25.19975663 2.68008962 25.19975663 2.68008962 27.4765625 2.671875 C28.32863281 2.69701172 29.18070312 2.72214844 30.05859375 2.74804688 C31.82936292 2.78274264 33.60020151 2.81408545 35.37109375 2.84179688 C44.80567701 3.13176533 53.44088023 5.3568664 60.125 12.36328125 C67.43583914 21.90322486 66.7687633 31.96628661 66.125 43.36328125 C67.7646875 43.51796875 67.7646875 43.51796875 69.4375 43.67578125 C74.16030081 44.55630343 74.16030081 44.55630343 76.125 47.36328125 C76.51318359 50.21069336 76.51318359 50.21069336 76.5234375 53.640625 C76.52730469 54.87619141 76.53117188 56.11175781 76.53515625 57.38476562 C76.51775391 59.32319336 76.51775391 59.32319336 76.5 61.30078125 C76.51160156 62.58919922 76.52320313 63.87761719 76.53515625 65.20507812 C76.53128906 66.44193359 76.52742187 67.67878906 76.5234375 68.953125 C76.52005371 70.08613037 76.51666992 71.21913574 76.51318359 72.38647461 C76.08368833 75.68008203 75.50176147 77.0691927 73.125 79.36328125 C69.4375 80.11328125 69.4375 80.11328125 66.125 80.36328125 C66.21201172 82.03003906 66.21201172 82.03003906 66.30078125 83.73046875 C66.67573409 93.89306259 66.28318625 101.34150726 59.3984375 109.37890625 C49.93433518 118.64827395 38.11679551 118.97065252 25.65234375 118.89453125 C24.07776145 118.89723312 22.50318079 118.90112128 20.92860413 118.90612793 C17.64649393 118.9119887 14.36482242 118.90357074 11.08276367 118.88476562 C6.90124881 118.86195866 2.72076028 118.87513126 -1.4607172 118.89905548 C-4.70637075 118.91359081 -7.95178562 118.90887268 -11.19744682 118.89854431 C-12.73823611 118.89589929 -14.27904795 118.89906732 -15.81981087 118.90846252 C-26.9925774 118.96167059 -36.83059089 118.06259494 -45.33984375 110.13671875 C-51.45683029 103.07027629 -53.02316557 96.21699703 -52.9375 87.05078125 C-52.92847656 85.79652344 -52.91945312 84.54226562 -52.91015625 83.25 C-52.89855469 82.29738281 -52.88695312 81.34476562 -52.875 80.36328125 C-53.7825 80.28078125 -54.69 80.19828125 -55.625 80.11328125 C-59.42126724 79.23721958 -60.50109814 78.39954199 -62.875 75.36328125 C-63.37670898 72.49414062 -63.37670898 72.49414062 -63.37109375 69.20703125 C-63.37173828 68.01980469 -63.37238281 66.83257812 -63.37304688 65.609375 C-63.35306641 64.37316406 -63.33308594 63.13695312 -63.3125 61.86328125 C-63.31958984 60.62707031 -63.32667969 59.39085937 -63.33398438 58.1171875 C-63.27017437 49.0758005 -63.27017437 49.0758005 -61.57836914 46.02539062 C-59.00180586 43.51123801 -56.35864406 43.62619778 -52.875 43.36328125 C-52.92720703 41.78740234 -52.92720703 41.78740234 -52.98046875 40.1796875 C-53.22586254 29.67032272 -52.86208661 20.86108929 -45.875 12.36328125 C-37.60947564 4.85251524 -29.97468181 2.90510707 -19.0625 3.36328125 C-17.2023458 3.43977834 -15.34157914 3.50288992 -13.48046875 3.55078125 C-12.66731201 3.58558594 -11.85415527 3.62039062 -11.01635742 3.65625 C-8.78382306 3.57741127 -8.78382306 3.57741127 -7.4543457 1.87426758 C-5.1004315 -0.37776133 -3.20070326 -0.00904844 0 0 Z " fill="#AFD9DA" transform="translate(186.875,51.63671875)"/>
<path d="M0 0 C6.93 0 13.86 0 21 0 C24.30787407 6.47789005 27.34938742 12.96871107 30.1015625 19.69921875 C30.64627701 21.01814873 30.64627701 21.01814873 31.20199585 22.36372375 C32.34648796 25.13689249 33.48590691 27.91210984 34.625 30.6875 C35.77237534 33.47312065 36.9207898 36.25831093 38.06942749 39.04341125 C38.77941237 40.76597919 39.4884735 42.48892827 40.19644165 44.21232605 C40.52042938 45.00037125 40.84441711 45.78841644 41.17822266 46.6003418 C41.48447571 47.34706146 41.79072876 48.09378113 42.10626221 48.86312866 C42.9533329 50.88842188 43.8433482 52.88999529 44.73974609 54.89379883 C46 58 46 58 46 61 C46.66 61 47.32 61 48 61 C48.09063721 60.3598999 48.18127441 59.7197998 48.2746582 59.06030273 C49.27203588 54.85224848 50.93161089 51.01493291 52.60546875 47.03515625 C52.96715652 46.16539658 53.3288443 45.2956369 53.70149231 44.39952087 C54.8592129 41.61870633 56.02333665 38.84062257 57.1875 36.0625 C57.95157644 34.22868414 58.71525226 32.3947013 59.47851562 30.56054688 C61.64137539 25.36906516 63.81703093 20.18305506 66 15 C66.31487366 14.25159851 66.62974731 13.50319702 66.9541626 12.7321167 C67.79573026 10.73542707 68.64102005 8.74037293 69.48828125 6.74609375 C69.95403564 5.64837646 70.41979004 4.55065918 70.8996582 3.41967773 C72 1 72 1 73 0 C79.93 0 86.86 0 94 0 C94 30.03 94 60.06 94 91 C88.06 91 82.12 91 76 91 C75.67 72.52 75.34 54.04 75 35 C68.4 50.51 61.8 66.02 55 82 C49.72 82 44.44 82 39 82 C36.47236727 76.11044059 33.94553339 70.22053933 31.41943359 64.33032227 C30.56027732 62.32729875 29.70090425 60.3243682 28.84130859 58.3215332 C27.60457022 55.4398613 26.36861626 52.55785406 25.1328125 49.67578125 C24.74940704 48.78288895 24.36600159 47.88999664 23.97097778 46.970047 C23.61075531 46.12955307 23.25053284 45.28905914 22.87939453 44.4230957 C22.56406769 43.68807327 22.24874084 42.95305084 21.92385864 42.195755 C20.91978451 39.80935009 19.96154282 37.40385704 19 35 C18.67 53.48 18.34 71.96 18 91 C12.06 91 6.12 91 0 91 C0 60.97 0 30.94 0 0 Z " fill="#010101" transform="translate(330,28)"/>
<path d="M0 0 C19 0 19 0 22.8125 3.03125 C23.97241211 5.1315918 23.97241211 5.1315918 25 7.5 C25.91554055 9.22655021 26.83372235 10.95170129 27.75390625 12.67578125 C28.24777832 13.65885254 28.74165039 14.64192383 29.25048828 15.65478516 C32.44962751 21.7718108 36.08999433 27.63412473 39.65161133 33.54492188 C42.07423579 37.58155607 44.45791917 41.64134108 46.84300232 45.70024109 C49.48912237 50.18573679 52.23707158 54.57931452 55 59 C55.33 39.53 55.66 20.06 56 0 C62.27 0 68.54 0 75 0 C75 30.03 75 60.06 75 91 C68.4 91 61.8 91 55 91 C49.24600124 83.51286908 49.24600124 83.51286908 47.62109375 79.59375 C44.78069833 73.26365942 41.15396215 67.46044191 37.50546265 61.57751465 C35.70174063 58.66160371 33.92715534 55.72807797 32.1484375 52.796875 C28.12295342 46.1828924 24.05810723 39.59442425 20 33 C19.67 52.14 19.34 71.28 19 91 C12.73 91 6.46 91 0 91 C0 60.97 0 30.94 0 0 Z " fill="#010101" transform="translate(749,28)"/>
<path d="M0 0 C6.6 0 13.2 0 20 0 C24.59137331 8.78198158 28.32997827 17.83198734 32.0625 27 C32.67999486 28.50795328 33.29783141 30.01576669 33.91601562 31.5234375 C36.97894733 39.00165244 40.01840466 46.48891727 43 54 C44.79734532 49.85661176 46.58851198 45.71057972 48.375 41.5625 C48.64333649 40.93951019 48.91167297 40.31652039 49.18814087 39.6746521 C53.61990852 29.36887246 57.86587744 19.00251222 61.96435547 8.55883789 C62.54467529 7.0853186 62.54467529 7.0853186 63.13671875 5.58203125 C63.47405029 4.71811768 63.81138184 3.8542041 64.15893555 2.96411133 C65 1 65 1 66 0 C72.6 0 79.2 0 86 0 C86 27.39 86 54.78 86 83 C80.72 83 75.44 83 70 83 C69.67 66.17 69.34 49.34 69 32 C63.12065731 45.40283122 63.12065731 45.40283122 57.24243164 58.80615234 C56.50671378 60.48276521 55.77095793 62.15936141 55.03515625 63.8359375 C54.65161987 64.71096924 54.2680835 65.58600098 53.8729248 66.48754883 C53.50759644 67.31971924 53.14226807 68.15188965 52.76586914 69.00927734 C52.44832169 69.73319672 52.13077423 70.45711609 51.80360413 71.20297241 C51.23159442 72.48210625 50.62663841 73.74672318 50 75 C45.38 75 40.76 75 36 75 C33.5957612 69.35894973 31.19304637 63.71725378 28.79174805 58.07495117 C27.97445978 56.15517593 27.15675369 54.23557852 26.33862305 52.31616211 C25.16345358 49.55889669 23.98978301 46.80099747 22.81640625 44.04296875 C22.44971329 43.18350143 22.08302032 42.32403412 21.70521545 41.43852234 C21.3649382 40.63791885 21.02466095 39.83731537 20.67407227 39.01245117 C20.3742897 38.3085173 20.07450714 37.60458344 19.76564026 36.87931824 C19.11305412 35.27749934 18.54696366 33.64089098 18 32 C17.67 48.83 17.34 65.66 17 83 C11.39 83 5.78 83 0 83 C0 55.61 0 28.22 0 0 Z " fill="#020202" transform="translate(107,351)"/>
<path d="M0 0 C6.93 0 13.86 0 21 0 C21.66644531 1.73121094 22.33289063 3.46242188 23.01953125 5.24609375 C29.26476655 21.3623878 35.88791133 37.24155741 43 53 C43.48879639 51.82083008 43.97759277 50.64166016 44.48120117 49.42675781 C46.31686656 44.99848982 48.15267567 40.57028142 49.98852539 36.14208984 C50.77892841 34.23553026 51.56929387 32.3289551 52.35961914 30.42236328 C56.56468984 20.27806242 60.77159939 10.13460346 65 0 C71.93 0 78.86 0 86 0 C86 27.39 86 54.78 86 83 C80.72 83 75.44 83 70 83 C69.67 65.84 69.34 48.68 69 31 C66.793125 36.0325 64.58625 41.065 62.3125 46.25 C61.62712158 47.81137695 60.94174316 49.37275391 60.2355957 50.98144531 C56.74054227 58.95511666 53.31975315 66.95134417 50 75 C45.38 75 40.76 75 36 75 C34.32875457 71.25198634 32.66301817 67.50166369 31 63.75 C30.54238281 62.72519531 30.08476563 61.70039063 29.61328125 60.64453125 C25.13267183 50.5171264 21.12300964 40.30752411 17 30 C16.67 47.49 16.34 64.98 16 83 C10.72 83 5.44 83 0 83 C0 55.61 0 28.22 0 0 Z " fill="#000000" transform="translate(499,351)"/>
<path d="M0 0 C46.88431877 0 46.88431877 0 56 9 C56.7425 9.721875 57.485 10.44375 58.25 11.1875 C62.26166126 17.63481274 65.39928192 25.33250619 64 33 C61.81079997 41.47392597 58.46519374 47.85406805 51.25 52.9375 C49 54 49 54 47 54 C47.50450684 54.85231201 48.00901367 55.70462402 48.52880859 56.58276367 C50.40720239 59.75824348 52.28094293 62.93644813 54.15332031 66.11547852 C54.96293356 67.48861753 55.77379151 68.86102348 56.5859375 70.23266602 C57.75592128 72.20916435 58.92134101 74.1882925 60.0859375 76.16796875 C60.44746918 76.77650192 60.80900085 77.3850351 61.18148804 78.01200867 C63.0858262 81.25991403 64.71043105 84.46097932 66 88 C59.42275434 89.05791215 52.45978023 90.02040214 46 88 C41.40786877 84.26974228 39.25438663 78.55201432 36.99072266 73.22802734 C35.5495378 69.98695957 33.7384074 67.07997036 31.875 64.0625 C29 59.24654378 29 59.24654378 29 57 C25.37 57 21.74 57 18 57 C18 67.23 18 77.46 18 88 C12.06 88 6.12 88 0 88 C0 58.96 0 29.92 0 0 Z " fill="#040404" transform="translate(548,149)"/>
<path d="M0 0 C20 0 20 0 24.5234375 4.37109375 C26.02563477 7.26538086 26.02563477 7.26538086 27.375 10.4375 C28.4745501 12.6357721 29.57483474 14.83367692 30.67578125 17.03125 C31.48329834 18.74828125 31.48329834 18.74828125 32.30712891 20.5 C35.11337601 26.30189768 38.3624618 31.84646924 41.5625 37.4375 C42.69200327 39.4552426 43.81846173 41.47469363 44.94140625 43.49609375 C45.41263916 44.34357178 45.88387207 45.1910498 46.36938477 46.06420898 C46.90748779 47.03302002 47.44559082 48.00183105 48 49 C49.65 51.97 51.3 54.94 53 58 C53.33 38.86 53.66 19.72 54 0 C59.94 0 65.88 0 72 0 C72 28.71 72 57.42 72 87 C65.73 87 59.46 87 53 87 C47.29791679 80.11577758 47.29791679 80.11577758 45.66015625 76.44140625 C42.65656355 70.11314298 39.03645982 64.16889315 35.44952393 58.16171265 C33.6305769 55.10346211 31.84042803 52.02858427 30.05078125 48.953125 C29.43887939 47.90286133 28.82697754 46.85259766 28.1965332 45.77050781 C27.47167725 44.52624023 26.74682129 43.28197266 26 42 C22.535 36.06 22.535 36.06 19 30 C18.67 48.81 18.34 67.62 18 87 C12.06 87 6.12 87 0 87 C0 58.29 0 29.58 0 0 Z " fill="#020202" transform="translate(751,150)"/>
<path d="M0 0 C7.92 0 15.84 0 24 0 C27.73210307 8.67888438 30.947142 17.42272325 33.90625 26.390625 C34.3575969 27.74773739 34.8093058 29.10472944 35.26135254 30.46160889 C36.20189174 33.28779072 37.13951158 36.11491657 38.07470703 38.94287109 C39.25728903 42.51880036 40.4450351 46.09298562 41.63467407 49.66657257 C46.20842407 63.4077648 50.75586278 77.15260313 55 91 C48.4 91 41.8 91 35 91 C31.56097561 81.82926829 31.56097561 81.82926829 30.3125 77.6875 C30.06113281 76.86636719 29.80976563 76.04523438 29.55078125 75.19921875 C29 73 29 73 29 70 C18.11 70 7.22 70 -4 70 C-4.66 72.97 -5.32 75.94 -6 79 C-7.23402777 83.03986463 -8.62247603 87.00518048 -10 91 C-16.6 91 -23.2 91 -30 91 C-27.67682425 83.03593597 -25.08659921 75.17376156 -22.44351196 67.31195068 C-16.66726466 50.12520752 -11.03735307 32.89236137 -5.45776367 15.64086914 C-5.16735199 14.74490524 -4.87694031 13.84894135 -4.57772827 12.92582703 C-4.03088844 11.23869882 -3.4853513 9.55114764 -2.9413147 7.8631134 C-1.11273643 2.22547287 -1.11273643 2.22547287 0 0 Z " fill="#020202" transform="translate(467,28)"/>
<path d="M0 0 C19 0 19 0 22.7421875 3.703125 C23.54230926 5.44773092 24.29136985 7.21627133 25 9 C26.12815894 11.0270447 27.27805647 13.04208918 28.4453125 15.046875 C29.67538958 17.27931707 30.90181671 19.5137733 32.125 21.75 C33.44049839 24.14054397 34.75911551 26.52936063 36.078125 28.91796875 C36.57039078 29.81043556 36.57039078 29.81043556 37.07260132 30.72093201 C40.77931327 37.43069551 44.58701922 44.08169059 48.40673828 50.72753906 C48.86806152 51.53030273 49.32938477 52.33306641 49.8046875 53.16015625 C50.20671387 53.85761963 50.60874023 54.55508301 51.02294922 55.27368164 C51.71553463 56.49738764 52.37117078 57.74234157 53 59 C53.33 39.53 53.66 20.06 54 0 C59.61 0 65.22 0 71 0 C71 28.71 71 57.42 71 87 C64.73 87 58.46 87 52 87 C48.65774623 83.16623832 47.08213931 80.87644004 45.14550781 76.43261719 C42.67258591 71.18108396 39.56251812 66.25103393 36.625 61.25 C35.40680477 59.13138541 34.19067124 57.01158407 32.9765625 54.890625 C28.36497335 46.89961983 23.67787326 38.95238454 19 31 C18.67 49.48 18.34 67.96 18 87 C12.06 87 6.12 87 0 87 C0 58.29 0 29.58 0 0 Z " fill="#020202" transform="translate(627,150)"/>
<path d="M0 0 C6.27 0 12.54 0 19 0 C19 11.88 19 23.76 19 36 C30.88 36 42.76 36 55 36 C55 24.12 55 12.24 55 0 C61.27 0 67.54 0 74 0 C74 30.03 74 60.06 74 91 C67.73 91 61.46 91 55 91 C55 78.13 55 65.26 55 52 C43.12 52 31.24 52 19 52 C19 64.87 19 77.74 19 91 C12.73 91 6.46 91 0 91 C0 60.97 0 30.94 0 0 Z " fill="#030303" transform="translate(619,28)"/>
<path d="M0 0 C7.54539351 4.87708147 11.73402431 12.42522857 14 21 C15.34947919 34.85862942 14.78292523 48.09200123 5.703125 59.28125 C-0.64937981 65.69203467 -8.32759028 68.28166935 -17.25 68.375 C-27.10866858 68.21084979 -34.06526769 65.7216201 -41.24609375 58.91796875 C-48.55556233 50.92476368 -50.39632312 42.2044637 -50.375 31.625 C-50.37338867 30.79009033 -50.37177734 29.95518066 -50.37011719 29.0949707 C-50.24332392 22.7173937 -49.25280529 17.57141391 -46 12 C-45.401875 10.9275 -44.80375 9.855 -44.1875 8.75 C-33.49358851 -4.69377444 -15.25966848 -8.92231982 0 0 Z " fill="#010101" transform="translate(527,261)"/>
<path d="M0 0 C7.92 0 15.84 0 24 0 C24.85980469 2.66320312 25.71960938 5.32640625 26.60546875 8.0703125 C27.79785581 11.75573515 28.99246908 15.44043386 30.1875 19.125 C30.49835541 20.08385101 30.80921082 21.04270203 31.12948608 22.03060913 C36.24589201 37.79441778 41.53068597 53.49386411 46.9987793 69.13916016 C47.51612108 70.63053115 48.03345547 72.1219047 48.55078125 73.61328125 C48.78556183 74.27708298 49.02034241 74.9408847 49.26223755 75.62480164 C50.59885991 79.4893511 51.316381 82.89828597 52 87 C45.73 87 39.46 87 33 87 C32.175 84.4425 31.35 81.885 30.5 79.25 C30.23896484 78.45110352 29.97792969 77.65220703 29.70898438 76.82910156 C29.50595703 76.1894043 29.30292969 75.54970703 29.09375 74.890625 C28.88427734 74.24125977 28.67480469 73.59189453 28.45898438 72.92285156 C28 71 28 71 28 67 C17.44 67 6.88 67 -4 67 C-4.99 70.96 -5.98 74.92 -7 79 C-7.99 81.64 -8.98 84.28 -10 87 C-16.27 87 -22.54 87 -29 87 C-19.33333333 58 -9.66666667 29 0 0 Z " fill="#020202" transform="translate(485,150)"/>
<path d="M0 0 C6.82830393 4.92646089 11.68270815 11.50698153 14.390625 19.4921875 C14.390625 20.8121875 14.390625 22.1321875 14.390625 23.4921875 C-0.9313054 24.7206719 -0.9313054 24.7206719 -4.8984375 21.81640625 C-6.359375 19.6796875 -6.359375 19.6796875 -7.40625 17.53515625 C-9.06006143 14.72689852 -10.65165733 13.8343451 -13.609375 12.4921875 C-19.47252256 11.72290927 -26.24193343 11.29519665 -31.671875 13.9921875 C-37.69473761 19.11802802 -41.03406755 25.62871432 -41.81420898 33.57983398 C-41.91297238 35.82575892 -41.93784028 38.05668019 -41.921875 40.3046875 C-41.91841064 41.09568848 -41.91494629 41.88668945 -41.91137695 42.70166016 C-41.78563721 49.47493375 -41.19210667 56.06111332 -37.00390625 61.625 C-35.609375 63.4921875 -35.609375 63.4921875 -35.609375 65.4921875 C-34.866875 65.7809375 -34.124375 66.0696875 -33.359375 66.3671875 C-30.609375 67.4921875 -30.609375 67.4921875 -28.83203125 68.5390625 C-23.67048535 70.75244949 -16.66289554 70.41877304 -11.34375 68.8046875 C-7.12389333 66.60302315 -4.73537453 63.66544583 -2.609375 59.4921875 C-1.949375 56.5221875 -1.289375 53.5521875 -0.609375 50.4921875 C-7.539375 50.4921875 -14.469375 50.4921875 -21.609375 50.4921875 C-21.609375 46.2021875 -21.609375 41.9121875 -21.609375 37.4921875 C-9.399375 37.4921875 2.810625 37.4921875 15.390625 37.4921875 C15.390625 52.89477579 14.74826631 65.80815711 4.078125 77.3046875 C-3.87405623 84.70844244 -14.21356202 87.07401113 -24.90234375 86.8046875 C-33.94740412 85.76052469 -41.97756439 82.77415489 -48.609375 76.4921875 C-49.15078125 75.99074219 -49.6921875 75.48929687 -50.25 74.97265625 C-61.00091138 63.81451338 -61.05571852 49.1343842 -60.88671875 34.6796875 C-60.68460911 27.94672151 -59.80823611 22.51122835 -56.609375 16.4921875 C-56.18527344 15.69296875 -55.76117187 14.89375 -55.32421875 14.0703125 C-49.19743969 3.89883529 -40.8702382 -1.76659699 -29.65625 -5.0859375 C-19.53564094 -7.17186456 -8.89007421 -5.13707881 0 0 Z " fill="#030303" transform="translate(897.609375,152.5078125)"/>
<path d="M0 0 C18.81 0 37.62 0 57 0 C57 5.28 57 10.56 57 16 C44.46 16 31.92 16 19 16 C19 22.93 19 29.86 19 37 C30.55 37 42.1 37 54 37 C54 42.28 54 47.56 54 53 C42.45 53 30.9 53 19 53 C19 60.26 19 67.52 19 75 C32.2 75 45.4 75 59 75 C59 80.28 59 85.56 59 91 C39.53 91 20.06 91 0 91 C0 60.97 0 30.94 0 0 Z " fill="#010101" transform="translate(842,28)"/>
<path d="M0 0 C8.62162404 6.51771237 12.78310351 14.18875584 14.2890625 24.73046875 C8.0190625 24.73046875 1.7490625 24.73046875 -4.7109375 24.73046875 C-5.4121875 23.32796875 -6.1134375 21.92546875 -6.8359375 20.48046875 C-9.45940427 15.75376941 -12.29842095 12.75908881 -17.62890625 11.15234375 C-24.20527799 9.81979563 -30.87488373 10.25838613 -36.7109375 13.73046875 C-42.11923249 18.3556622 -45.20416123 24.29258585 -46.01245117 31.37084961 C-46.1490772 34.28848456 -46.16946286 37.18485544 -46.1484375 40.10546875 C-46.16841797 41.08257812 -46.18839844 42.0596875 -46.20898438 43.06640625 C-46.20403009 50.51765682 -45.112698 57.94672789 -39.96069336 63.67724609 C-34.35657509 68.83618118 -29.01772307 70.19885053 -21.5 70.046875 C-15.97261318 69.41981851 -12.17860154 67.23675553 -8.3359375 63.29296875 C-6.41809284 60.44204664 -6.41809284 60.44204664 -4.7109375 55.73046875 C1.5590625 55.73046875 7.8290625 55.73046875 14.2890625 55.73046875 C12.97126391 65.98001336 8.95872101 72.96782275 0.9765625 79.60546875 C-8.49715813 86.46017446 -19.16541045 88.76131938 -30.7109375 87.73046875 C-42.64084079 85.35022362 -52.08834381 80.04992234 -59.24609375 70.11328125 C-66.89177088 57.67631312 -68.76455678 41.9452989 -66.0234375 27.71875 C-63.08447779 15.60778686 -58.18620369 5.89440459 -47.7109375 -1.26953125 C-31.89909139 -9.35650598 -15.21902573 -9.7836594 0 0 Z " fill="#020202" transform="translate(591.7109375,33.26953125)"/>
<path d="M0 0 C0.91644287 0.00523682 1.83288574 0.01047363 2.77709961 0.01586914 C4.26113281 0.02070313 4.26113281 0.02070313 5.77514648 0.02563477 C6.81606445 0.03401367 7.85698242 0.04239258 8.92944336 0.05102539 C10.49662109 0.05779297 10.49662109 0.05779297 12.09545898 0.06469727 C14.68600996 0.07652627 17.27644895 0.0930085 19.86694336 0.11352539 C26.75632888 20.19548395 33.62827308 40.28375833 40.37759399 60.41329956 C40.95315676 62.12812017 41.53028169 63.84241727 42.10897827 65.55618286 C42.91553246 67.94623749 43.71626058 70.33816419 44.51538086 72.73071289 C44.75532272 73.43823196 44.99526459 74.14575104 45.24247742 74.87471008 C46.19748432 77.75284699 46.86694336 80.05797416 46.86694336 83.11352539 C40.92694336 83.11352539 34.98694336 83.11352539 28.86694336 83.11352539 C28.04194336 80.53540039 27.21694336 77.95727539 26.36694336 75.30102539 C26.1059082 74.4930249 25.84487305 73.68502441 25.57592773 72.85253906 C24.62250219 69.83676327 23.86694336 67.29446722 23.86694336 64.11352539 C13.96694336 64.11352539 4.06694336 64.11352539 -6.13305664 64.11352539 C-7.12305664 68.07352539 -8.11305664 72.03352539 -9.13305664 76.11352539 C-10.12305664 78.42352539 -11.11305664 80.73352539 -12.13305664 83.11352539 C-18.07305664 83.11352539 -24.01305664 83.11352539 -30.13305664 83.11352539 C-23.82039554 63.51723849 -17.44834898 43.94135304 -10.95559692 24.40390015 C-10.28129516 22.37414936 -9.60801904 20.34405757 -8.9357605 18.31362915 C-7.99027852 15.45943592 -7.04080437 12.60660364 -6.09008789 9.75415039 C-5.80519501 8.89232651 -5.52030212 8.03050262 -5.22677612 7.14256287 C-2.8881216 0.15371141 -2.8881216 0.15371141 0 0 Z " fill="#010101" transform="translate(630.133056640625,350.886474609375)"/>
<path d="M0 0 C1.14984375 0.00064453 2.2996875 0.00128906 3.484375 0.00195312 C4.68578125 0.01806641 5.8871875 0.03417969 7.125 0.05078125 C8.32640625 0.04755859 9.5278125 0.04433594 10.765625 0.04101562 C19.72446075 0.09625508 19.72446075 0.09625508 23.125 2.36328125 C25.19975663 2.68008962 25.19975663 2.68008962 27.4765625 2.671875 C28.32863281 2.69701172 29.18070312 2.72214844 30.05859375 2.74804688 C31.82936292 2.78274264 33.60020151 2.81408545 35.37109375 2.84179688 C44.80567701 3.13176533 53.44088023 5.3568664 60.125 12.36328125 C67.43583914 21.90322486 66.7687633 31.96628661 66.125 43.36328125 C67.7646875 43.51796875 67.7646875 43.51796875 69.4375 43.67578125 C74.16030081 44.55630343 74.16030081 44.55630343 76.125 47.36328125 C76.51318359 50.21069336 76.51318359 50.21069336 76.5234375 53.640625 C76.52730469 54.87619141 76.53117188 56.11175781 76.53515625 57.38476562 C76.51775391 59.32319336 76.51775391 59.32319336 76.5 61.30078125 C76.51160156 62.58919922 76.52320313 63.87761719 76.53515625 65.20507812 C76.53128906 66.44193359 76.52742187 67.67878906 76.5234375 68.953125 C76.52005371 70.08613037 76.51666992 71.21913574 76.51318359 72.38647461 C76.08368833 75.68008203 75.50176147 77.0691927 73.125 79.36328125 C69.4375 80.11328125 69.4375 80.11328125 66.125 80.36328125 C66.21201172 82.03003906 66.21201172 82.03003906 66.30078125 83.73046875 C66.67573409 93.89306259 66.28318625 101.34150726 59.3984375 109.37890625 C49.93433518 118.64827395 38.11679551 118.97065252 25.65234375 118.89453125 C24.07776145 118.89723312 22.50318079 118.90112128 20.92860413 118.90612793 C17.64649393 118.9119887 14.36482242 118.90357074 11.08276367 118.88476562 C6.90124881 118.86195866 2.72076028 118.87513126 -1.4607172 118.89905548 C-4.70637075 118.91359081 -7.95178562 118.90887268 -11.19744682 118.89854431 C-12.73823611 118.89589929 -14.27904795 118.89906732 -15.81981087 118.90846252 C-26.9925774 118.96167059 -36.83059089 118.06259494 -45.33984375 110.13671875 C-51.45683029 103.07027629 -53.02316557 96.21699703 -52.9375 87.05078125 C-52.92847656 85.79652344 -52.91945312 84.54226562 -52.91015625 83.25 C-52.89855469 82.29738281 -52.88695312 81.34476562 -52.875 80.36328125 C-53.7825 80.28078125 -54.69 80.19828125 -55.625 80.11328125 C-59.42126724 79.23721958 -60.50109814 78.39954199 -62.875 75.36328125 C-63.37670898 72.49414062 -63.37670898 72.49414062 -63.37109375 69.20703125 C-63.37173828 68.01980469 -63.37238281 66.83257812 -63.37304688 65.609375 C-63.35306641 64.37316406 -63.33308594 63.13695312 -63.3125 61.86328125 C-63.31958984 60.62707031 -63.32667969 59.39085937 -63.33398438 58.1171875 C-63.27017437 49.0758005 -63.27017437 49.0758005 -61.57836914 46.02539062 C-59.00180586 43.51123801 -56.35864406 43.62619778 -52.875 43.36328125 C-52.92720703 41.78740234 -52.92720703 41.78740234 -52.98046875 40.1796875 C-53.22586254 29.67032272 -52.86208661 20.86108929 -45.875 12.36328125 C-37.60947564 4.85251524 -29.97468181 2.90510707 -19.0625 3.36328125 C-17.2023458 3.43977834 -15.34157914 3.50288992 -13.48046875 3.55078125 C-12.66731201 3.58558594 -11.85415527 3.62039062 -11.01635742 3.65625 C-8.78382306 3.57741127 -8.78382306 3.57741127 -7.4543457 1.87426758 C-5.1004315 -0.37776133 -3.20070326 -0.00904844 0 0 Z M-30.875 9.36328125 C-30.875 10.02328125 -30.875 10.68328125 -30.875 11.36328125 C-31.60332031 11.45996094 -32.33164063 11.55664062 -33.08203125 11.65625 C-36.26148489 12.46111868 -38.00351788 13.64684297 -40.5625 15.67578125 C-41.32949219 16.27003906 -42.09648437 16.86429688 -42.88671875 17.4765625 C-45.86291683 20.30073475 -46.78732981 22.3259353 -47.13569641 26.44793701 C-47.1403038 27.65846741 -47.14491119 28.8689978 -47.1496582 30.11621094 C-47.15476913 30.78669464 -47.15988007 31.45717834 -47.16514587 32.14797974 C-47.17902349 34.36046325 -47.17808586 36.57263442 -47.17578125 38.78515625 C-47.17967057 40.32969274 -47.18400572 41.87422816 -47.18876648 43.41876221 C-47.19622576 46.65681421 -47.19594056 49.8947572 -47.19067383 53.1328125 C-47.18489423 57.26634284 -47.20177468 61.39942289 -47.2250185 65.53287888 C-47.23981271 68.72437109 -47.24061959 71.91575648 -47.23750877 75.10727692 C-47.23801962 76.63018939 -47.24321259 78.15310823 -47.25332069 79.67598724 C-47.51158814 92.85911517 -47.51158814 92.85911517 -41.4375 104.17578125 C-40.591875 104.89765625 -39.74625 105.61953125 -38.875 106.36328125 C-38.25625 106.92015625 -37.6375 107.47703125 -37 108.05078125 C-31.02082648 111.74380019 -24.67465733 111.64529297 -17.875 111.55078125 C-16.84769775 111.54143555 -15.82039551 111.53208984 -14.76196289 111.52246094 C-12.31015452 111.49560313 -9.8584093 111.46264059 -7.40673828 111.42529297 C-4.01711761 111.37491359 -0.62770471 111.34438364 2.76220703 111.32080078 C8.00544558 111.28373152 13.24809143 111.22440403 18.4909668 111.15274048 C20.61329401 111.12654166 22.73570834 111.10661241 24.8581543 111.09310913 C27.8864755 111.0716689 30.91348009 111.02495037 33.94140625 110.97265625 C35.30272423 110.97079063 35.30272423 110.97079063 36.69154358 110.96888733 C43.56154045 110.81157696 48.89248265 109.15273155 54.1484375 104.6171875 C54.81746094 103.77994141 54.81746094 103.77994141 55.5 102.92578125 C55.96148437 102.37019531 56.42296875 101.81460938 56.8984375 101.2421875 C59.80622671 96.78789893 60.37899534 92.93766938 60.3996582 87.66455078 C60.4073246 86.68545746 60.4073246 86.68545746 60.41514587 85.68658447 C60.42898805 83.53965962 60.42808903 81.39305779 60.42578125 79.24609375 C60.42967154 77.74543134 60.4340069 76.24477002 60.43876648 74.74411011 C60.44621742 71.6019941 60.44594591 68.45999047 60.44067383 65.31787109 C60.4348849 61.30421356 60.45180134 57.29101836 60.4750185 53.27743721 C60.48979857 50.17863301 60.49062169 47.07993901 60.48750877 43.9811058 C60.48801998 42.50202393 60.49321989 41.02293556 60.50332069 39.54388809 C60.51574959 37.46922619 60.50885585 35.39545003 60.49731445 33.32080078 C60.49794388 32.14341339 60.4985733 30.966026 60.4992218 29.75296021 C59.76035847 23.0603798 56.7753862 18.12181596 52.125 13.36328125 C46.64329975 9.71991677 41.63732244 9.987413 35.296875 10.10546875 C33.71477989 10.11593735 33.71477989 10.11593735 32.10072327 10.12661743 C29.85181272 10.14270106 27.60294123 10.16537717 25.35415649 10.1940918 C19.56832945 10.26757873 13.78228219 10.29411513 7.99609375 10.32421875 C6.30651802 10.33476288 6.30651802 10.33476288 4.58280945 10.34552002 C-7.25847782 10.4054271 -19.05181469 10.0273719 -30.875 9.36328125 Z " fill="#8CACAD" transform="translate(186.875,51.63671875)"/>
<path d="M0 0 C7.26 0 14.52 0 22 0 C24.33985549 6.88674859 26.67909897 13.77370443 29.01737976 20.66098785 C30.10417108 23.8620022 31.19126482 27.06291304 32.27880859 30.26367188 C34.78616018 37.64336254 37.28869498 45.0246558 39.78466797 52.40820312 C40.59462794 54.80196188 41.40615071 57.19519241 42.21923828 59.58789062 C43.35880166 62.94257083 44.49261402 66.29914141 45.625 69.65625 C45.96797119 70.66192017 46.31094238 71.66759033 46.66430664 72.70373535 C46.97360107 73.62456909 47.28289551 74.54540283 47.6015625 75.49414062 C47.87307129 76.29613892 48.14458008 77.09813721 48.42431641 77.92443848 C49 80 49 80 49 83 C43.06 83 37.12 83 31 83 C30.175 80.40125 29.35 77.8025 28.5 75.125 C28.23896484 74.30789551 27.97792969 73.49079102 27.70898438 72.64892578 C26 67.22222222 26 67.22222222 26 65 C16.1 65 6.2 65 -4 65 C-4.99 68.96 -5.98 72.92 -7 77 C-7.66 78.98 -8.32 80.96 -9 83 C-14.94 83 -20.88 83 -27 83 C-24.55780878 73.58218705 -21.55081595 64.39317587 -18.45703125 55.17578125 C-17.92296914 53.57733322 -17.38917552 51.97879547 -16.8556366 50.38017273 C-15.46259758 46.20862783 -14.06595684 42.03829782 -12.66851807 37.8682251 C-11.23838908 33.59843608 -9.81173114 29.32748769 -8.38476562 25.05664062 C-5.59320627 16.703299 -2.79751354 8.35134947 0 0 Z " fill="#030303" transform="translate(233,351)"/>
<path d="M0 0 C5.61 0 11.22 0 17 0 C17 10.56 17 21.12 17 32 C27.56 32 38.12 32 49 32 C49 21.44 49 10.88 49 0 C54.61 0 60.22 0 66 0 C66 27.39 66 54.78 66 83 C60.39 83 54.78 83 49 83 C49 71.45 49 59.9 49 48 C38.44 48 27.88 48 17 48 C17 59.55 17 71.1 17 83 C11.39 83 5.78 83 0 83 C0 55.61 0 28.22 0 0 Z " fill="#030303" transform="translate(350,351)"/>
<path d="M0 0 C17.82 0 35.64 0 54 0 C54 4.95 54 9.9 54 15 C42.12 15 30.24 15 18 15 C18 21.93 18 28.86 18 36 C28.89 36 39.78 36 51 36 C51 40.62 51 45.24 51 50 C40.11 50 29.22 50 18 50 C18 57.26 18 64.52 18 72 C30.54 72 43.08 72 56 72 C56 76.95 56 81.9 56 87 C37.52 87 19.04 87 0 87 C0 58.29 0 29.58 0 0 Z " fill="#020202" transform="translate(393,150)"/>
<path d="M0 0 C1.06863281 0.01804688 2.13726562 0.03609375 3.23828125 0.0546875 C4.04652344 0.07789063 4.85476563 0.10109375 5.6875 0.125 C5.6875 4.125 5.6875 4.125 4.078125 6.08984375 C3.37171875 6.74082031 2.6653125 7.39179688 1.9375 8.0625 C1.21175781 8.75859375 0.48601562 9.4546875 -0.26171875 10.171875 C-0.93847656 10.81640625 -1.61523438 11.4609375 -2.3125 12.125 C-4.86142997 14.61532405 -4.86142997 14.61532405 -6.3125 17.125 C-6.00369655 21.34531383 -4.70520717 23.24717756 -1.5625 26 C-0.88703125 26.61617187 -0.2115625 27.23234375 0.484375 27.8671875 C2.60975676 29.30304578 2.60975676 29.30304578 5.06640625 29.23046875 C8.97239333 27.58308523 11.16144973 24.7456387 13.875 21.5625 C15.77425947 19.36928017 17.69713005 17.23884933 19.6875 15.125 C20.3475 15.125 21.0075 15.125 21.6875 15.125 C24.48109293 20.05486988 23.79051752 24.78149291 22.6875 30.125 C20.60975471 36.75003927 16.3472345 41.22536915 10.6875 45.125 C6.64257687 47.22434853 3.91408229 47.10077203 -0.5625 46.625 C-4.66630883 46.54625875 -6.61145369 46.59342584 -9.9140625 49.09765625 C-12.18700349 51.68693438 -14.25303619 54.36418335 -16.3125 57.125 C-17.49447894 58.35912507 -18.70077911 59.57073738 -19.9375 60.75 C-23.60933019 64.36287879 -26.94454542 68.23080252 -30.3125 72.125 C-46.45166176 90.72657064 -46.45166176 90.72657064 -55.125 91.4375 C-59.4983685 91.38122504 -61.93647294 89.95144126 -65.3125 87.125 C-68.47364594 83.478117 -69.23415121 80.52573639 -69.5546875 75.7734375 C-68.82487863 67.79262437 -61.70946416 62.2932696 -56.01953125 57.37109375 C-53.30367458 55.11767732 -50.56169078 52.90007363 -47.8125 50.6875 C-42.25578891 46.19333282 -37.2835866 41.2487821 -32.3125 36.125 C-27.41479618 31.21258836 -27.41479618 31.21258836 -25.4921875 29.56640625 C-24.12949671 28.18802236 -24.12949671 28.18802236 -24.1953125 26.21484375 C-24.27523437 25.50457031 -24.35515625 24.79429687 -24.4375 24.0625 C-24.6348767 17.31879595 -21.88464378 11.93568937 -17.375 7.0078125 C-11.87377372 1.98585972 -7.56931592 -0.16635859 0 0 Z " fill="#EBB230" transform="translate(270.3125,150.875)"/>
<path d="M0 0 C16.83 0 33.66 0 51 0 C51 4.95 51 9.9 51 15 C39.78 15 28.56 15 17 15 C17 21.27 17 27.54 17 34 C27.56 34 38.12 34 49 34 C49 38.95 49 43.9 49 49 C38.44 49 27.88 49 17 49 C17 55.27 17 61.54 17 68 C19.51496094 67.98839844 22.02992188 67.97679687 24.62109375 67.96484375 C27.0469551 67.95705327 29.47281507 67.95097646 31.89868164 67.94506836 C33.58944316 67.9400281 35.28020029 67.93319595 36.97094727 67.92456055 C39.39600707 67.91248143 41.82100944 67.90676877 44.24609375 67.90234375 C45.38672523 67.89460182 45.38672523 67.89460182 46.55039978 67.88670349 C48.3673257 67.88650762 50.18413127 67.93802723 52 68 C55.54338194 71.54338194 53 77.98890121 53 83 C35.51 83 18.02 83 0 83 C0 55.61 0 28.22 0 0 Z " fill="#050505" transform="translate(432,351)"/>
<path d="M0 0 C8.53368055 6.10625551 12.50949597 12.8069758 14.25 23.25 C8.31 23.25 2.37 23.25 -3.75 23.25 C-4.74 20.94 -5.73 18.63 -6.75 16.25 C-12.27471055 11.12953657 -16.10237638 10.89940275 -23.4765625 10.97265625 C-28.11390925 11.36555794 -30.13391809 12.32635931 -33.75 15.25 C-41.4337398 24.80275759 -40.69146858 36.60403361 -39.75 48.25 C-38.67927161 53.5793072 -36.8817292 57.53850348 -32.875 61.25 C-26.39691371 65.39597523 -21.18211664 65.81335008 -13.75 64.25 C-10.84369632 62.8269016 -10.84369632 62.8269016 -8.75 61.25 C-8.09 61.25 -7.43 61.25 -6.75 61.25 C-5.21075452 58.28145514 -4.00353997 55.38384992 -2.75 52.25 C2.86 52.25 8.47 52.25 14.25 52.25 C12.74159355 61.75296065 8.76142834 68.91368802 1.17578125 74.96875 C-7.76775955 80.9190165 -17.18829805 82.12913825 -27.75 81.25 C-37.36136613 78.89893072 -45.57089677 74.03162767 -51.75 66.25 C-59.22042212 53.60925941 -60.77664564 38.22624688 -57.5625 24 C-54.60406275 13.6661099 -50.29037615 5.0437615 -40.7734375 -0.4765625 C-27.2778176 -7.40497077 -13.26218828 -8.26676403 0 0 Z " fill="#020202" transform="translate(839.75,354.75)"/>
<path d="M0 0 C37.76923077 0 37.76923077 0 45.4375 7.25 C49.45755246 12.59108953 51.57947884 18.26910325 51.2890625 24.98828125 C50.44836514 30.83908047 48.12879452 35.75323993 44 40 C42.01457222 41.35493701 40.01593296 42.69088119 38 44 C38.45439453 44.7520874 38.90878906 45.5041748 39.37695312 46.27905273 C41.05595674 49.06038679 42.73299514 51.842893 44.40869141 54.6262207 C45.13543921 55.83242696 45.86297686 57.03815769 46.59130859 58.2434082 C47.6358481 59.97222767 48.67734787 61.70288259 49.71875 63.43359375 C50.34716797 64.47572021 50.97558594 65.51784668 51.62304688 66.59155273 C53 69 53 69 53 70 C42.17092975 71.53762284 42.17092975 71.53762284 37 70 C33.1211261 66.25349124 31.1788945 61.88372906 29 57 C28.03516931 55.06539077 27.03867188 53.14598835 26 51.25 C25.608125 50.45078125 25.21625 49.6515625 24.8125 48.828125 C22.47968291 46.09900253 22.47968291 46.09900253 15 46 C15 53.92 15 61.84 15 70 C10.05 70 5.1 70 0 70 C0 46.9 0 23.8 0 0 Z " fill="#030303" transform="translate(551,258)"/>
<path d="M0 0 C5.37238222 4.27348586 8.50432697 8.80506086 10.75 15.1875 C10.75 16.5075 10.75 17.8275 10.75 19.1875 C5.8 19.1875 0.85 19.1875 -4.25 19.1875 C-5.24 17.2075 -6.23 15.2275 -7.25 13.1875 C-12.1240577 9.62111632 -17.41518035 9.30802151 -23.25 10.1875 C-26.35806679 11.51952863 -28.6998083 13.0871166 -30.25 16.1875 C-30.77560492 21.04279151 -30.77560492 21.04279151 -28.70703125 25.2578125 C-25.58796791 27.70744253 -22.38422283 28.65404271 -18.625 29.6875 C-17.18162274 30.11755291 -15.73891004 30.54984264 -14.296875 30.984375 C-13.25176758 31.2947168 -13.25176758 31.2947168 -12.18554688 31.61132812 C-3.17224443 34.29439999 3.44135635 37.99321984 9.75 45.1875 C12.92500545 51.36057561 12.75767062 58.88195971 10.6875 65.4375 C7.62596874 72.45171247 1.4871042 76.99624012 -5.25 80.1875 C-14.89041603 83.40097201 -24.87990783 83.30348059 -34.25 79.1875 C-40.4978532 75.71275812 -45.23866853 70.69989505 -48.25 64.1875 C-48.65496737 61.86552735 -49.00221783 59.53146236 -49.25 57.1875 C-46.66414795 57.02513255 -44.08848046 56.90654514 -41.5 56.8125 C-40.77039063 56.76222656 -40.04078125 56.71195312 -39.2890625 56.66015625 C-37.140625 56.6015625 -37.140625 56.6015625 -33.25 57.1875 C-31.046875 60.0234375 -31.046875 60.0234375 -29.25 63.1875 C-24.0389193 67.23485825 -18.58541061 66.98370701 -12.25 66.1875 C-9.05456597 64.9081251 -6.8271562 63.3418124 -5.25 60.1875 C-4.7465465 56.41159876 -4.80186172 54.77759513 -7.13671875 51.703125 C-10.87468082 48.17893094 -15.61330756 47.15901074 -20.4375 45.75 C-40.06802276 39.60821302 -40.06802276 39.60821302 -45.25 31.1875 C-48.24913802 24.70936188 -48.34386006 17.56230466 -46 10.8125 C-42.63628983 3.20152445 -37.00841083 -0.92226232 -29.41796875 -3.9375 C-19.19115724 -6.76216804 -9.10147056 -5.07582012 0 0 Z " fill="#020202" transform="translate(911.25,353.8125)"/>
<path d="M0 0 C5.94 0 11.88 0 18 0 C18 23.43 18 46.86 18 71 C29.22 71 40.44 71 52 71 C52 76.28 52 81.56 52 87 C34.84 87 17.68 87 0 87 C0 58.29 0 29.58 0 0 Z " fill="#010202" transform="translate(330,150)"/>
<path d="M0 0 C20.79 0 41.58 0 63 0 C63 4.95 63 9.9 63 15 C55.41 15 47.82 15 40 15 C40 37.44 40 59.88 40 83 C34.39 83 28.78 83 23 83 C23 60.56 23 38.12 23 15 C15.41 15 7.82 15 0 15 C0 10.05 0 5.1 0 0 Z " fill="#010101" transform="translate(675,351)"/>
<path d="M0 0 C20.13 0 40.26 0 61 0 C61 4.95 61 9.9 61 15 C53.74 15 46.48 15 39 15 C39 37.44 39 59.88 39 83 C33.39 83 27.78 83 22 83 C22 60.56 22 38.12 22 15 C14.74 15 7.48 15 0 15 C0 10.05 0 5.1 0 0 Z " fill="#000000" transform="translate(278,351)"/>
<path d="M0 0 C6.27 0 12.54 0 19 0 C19 30.03 19 60.06 19 91 C12.73 91 6.46 91 0 91 C0 60.97 0 30.94 0 0 Z " fill="#020202" transform="translate(712,28)"/>
<path d="M0 0 C14.19 0 28.38 0 43 0 C43 3.96 43 7.92 43 12 C33.43 12 23.86 12 14 12 C14 18.27 14 24.54 14 31 C22.91 31 31.82 31 41 31 C41 34.63 41 38.26 41 42 C32.09 42 23.18 42 14 42 C14 51.24 14 60.48 14 70 C9.38 70 4.76 70 0 70 C0 46.9 0 23.8 0 0 Z " fill="#000000" transform="translate(427,258)"/>
<path d="M0 0 C5.94 0 11.88 0 18 0 C18 28.71 18 57.42 18 87 C12.06 87 6.12 87 0 87 C0 58.29 0 29.58 0 0 Z " fill="#010202" transform="translate(716,150)"/>
<path d="M0 0 C0 1.98 0 3.96 0 6 C1.65 5.67 3.3 5.34 5 5 C5.66 6.98 6.32 8.96 7 11 C7.99 11 8.98 11 10 11 C10.51137914 16.36948097 9.10796131 18.70370054 6 23 C5.71125 23.845625 5.4225 24.69125 5.125 25.5625 C3.47372591 29.14026052 1.17577698 30.68432928 -2 33 C-2.66 33 -3.32 33 -4 33 C-4 33.66 -4 34.32 -4 35 C-4.99 35 -5.98 35 -7 35 C-7.28875 35.5775 -7.5775 36.155 -7.875 36.75 C-8.91666667 38.83333333 -9.95833333 40.91666667 -11 43 C-11.66 43 -12.32 43 -13 43 C-13.08636719 43.72574219 -13.17273438 44.45148438 -13.26171875 45.19921875 C-14.66579925 50.52580986 -18.51355946 54.0005305 -23 57 C-29.10417627 58.28102814 -34.34299212 57.52913674 -40 55 C-40 54.34 -40 53.68 -40 53 C-40.66 53 -41.32 53 -42 53 C-42.28875 52.21625 -42.5775 51.4325 -42.875 50.625 C-43.84912254 47.90328368 -43.84912254 47.90328368 -46 46 C-46 40.62149749 -42.47892737 36.74977811 -39 33 C-34.74713929 29.02257011 -30.27021467 25.29768588 -25.81835938 21.546875 C-23.33445078 19.43381849 -20.91423732 17.25456824 -18.5 15.0625 C-15.20678577 12.076141 -11.87618415 9.14902943 -8.47265625 6.2890625 C-6.95811053 4.99708283 -6.95811053 4.99708283 -5.49609375 3.4609375 C-1.95187166 0 -1.95187166 0 0 0 Z " fill="#ECB434" transform="translate(247,181)"/>
<path d="M0 0 C5.61 0 11.22 0 17 0 C17 27.39 17 54.78 17 83 C11.39 83 5.78 83 0 83 C0 55.61 0 28.22 0 0 Z " fill="#000000" transform="translate(750,351)"/>
<path d="M0 0 C0.02505615 0.8878418 0.0501123 1.77568359 0.07592773 2.69042969 C0.17121797 5.99296037 0.27044207 9.29532459 0.37231445 12.59765625 C0.41555318 14.02534388 0.45723585 15.45307954 0.49731445 16.88085938 C0.55528602 18.93634496 0.61890175 20.99159128 0.68359375 23.046875 C0.72025146 24.28276367 0.75690918 25.51865234 0.79467773 26.79199219 C0.96096424 29.39009531 1.30751731 31.51711955 2 34 C2.04296866 35.87450759 2.04042187 37.75043576 2 39.625 C1.81957237 43.46206317 1.81957237 43.46206317 3 47 C2.979375 48.11375 2.95875 49.2275 2.9375 50.375 C2.99551686 53.7399781 3.23213916 55.23771743 5 58 C5.33 57.01 5.66 56.02 6 55 C6.33 54.34 6.66 53.68 7 53 C7.29132813 53.53109375 7.58265625 54.0621875 7.8828125 54.609375 C11.64623077 61.09476245 15.53540383 64.58831424 22.94580078 66.59863281 C26.94258696 67.37955942 30.94238671 67.24389873 35 67.1875 C36.02730225 67.1781543 37.05460449 67.16880859 38.11303711 67.15917969 C40.56484548 67.13232188 43.0165907 67.09935934 45.46826172 67.06201172 C48.85788239 67.01163234 52.24729529 66.98110239 55.63720703 66.95751953 C60.88044558 66.92045027 66.12309143 66.86112278 71.3659668 66.78945923 C73.48829401 66.76326041 75.61070834 66.74333116 77.7331543 66.72982788 C80.7614755 66.70838765 83.78848009 66.66166912 86.81640625 66.609375 C88.17772423 66.60750938 88.17772423 66.60750938 89.56654358 66.60560608 C96.09263939 66.45617041 101.62019966 65.12578393 106.52613831 60.58856201 C110.63018117 55.94536995 112.20922521 51.59144784 112.4140625 45.48046875 C112.45273438 44.45888672 112.49140625 43.43730469 112.53125 42.38476562 C112.5621875 41.32966797 112.593125 40.27457031 112.625 39.1875 C112.66367188 38.11306641 112.70234375 37.03863281 112.7421875 35.93164062 C112.83618613 33.28792912 112.92184573 30.6442195 113 28 C113.33 28 113.66 28 114 28 C114 29.98 114 31.96 114 34 C114.9590625 34.185625 114.9590625 34.185625 115.9375 34.375 C116.618125 34.58125 117.29875 34.7875 118 35 C120.89771697 40.79543394 119.82007583 50.95728876 118.1640625 57.1015625 C114.65272358 64.71339117 109.02450587 70.03975948 101.25610352 73.16210938 C93.78058931 75.75711197 86.33053149 75.57890461 78.52734375 75.53125 C76.95276145 75.53395187 75.37818079 75.53784003 73.80360413 75.54284668 C70.52149393 75.54870745 67.23982242 75.54028949 63.95776367 75.52148438 C59.77624881 75.49867741 55.59576028 75.51185001 51.4142828 75.53577423 C48.16862925 75.55030956 44.92321438 75.54559143 41.67755318 75.53526306 C40.13676389 75.53261804 38.59595205 75.53578607 37.05518913 75.54518127 C25.8824226 75.59838934 16.04440911 74.69931369 7.53515625 66.7734375 C1.41816971 59.70699504 -0.14816557 52.85371578 -0.0625 43.6875 C-0.05347656 42.43324219 -0.04445312 41.17898437 -0.03515625 39.88671875 C-0.02355469 38.93410156 -0.01195312 37.98148438 0 37 C-0.9075 36.9175 -1.815 36.835 -2.75 36.75 C-6.54626724 35.87393833 -7.62609814 35.03626074 -10 32 C-10.50170898 29.13085938 -10.50170898 29.13085938 -10.49609375 25.84375 C-10.49673828 24.65652344 -10.49738281 23.46929687 -10.49804688 22.24609375 C-10.47806641 21.00988281 -10.45808594 19.77367187 -10.4375 18.5 C-10.44458984 17.26378906 -10.45167969 16.02757812 -10.45898438 14.75390625 C-10.38606232 4.42141159 -10.38606232 4.42141159 -7 1 C-4 0 -4 0 0 0 Z " fill="#34626A" transform="translate(134,95)"/>
<path d="M0 0 C5.04136242 2.52068121 7.93063278 5.39563702 10.05859375 10.578125 C11.21163366 14.7692576 11.33054464 18.55150515 11.3125 22.875 C11.32861328 23.63941406 11.34472656 24.40382813 11.36132812 25.19140625 C11.36627445 31.01817746 10.69346542 37.09596608 6.54785156 41.56567383 C1.28587231 46.04824833 -2.27038806 46.35412215 -9.015625 46.2734375 C-13.07753773 45.90127272 -15.08460596 44.84250919 -18 42 C-23.91941485 33.91588005 -23.70927991 24.61468323 -23 15 C-21.79585696 9.86930356 -20.17546429 6.17546429 -16.4375 2.4375 C-11.21100329 -0.64479293 -5.91653404 -0.61789268 0 0 Z " fill="#FCFCFC" transform="translate(515,270)"/>
<path d="M0 0 C3.14565046 -0.08845016 6.29097375 -0.14086835 9.4375 -0.1875 C10.31599609 -0.21263672 11.19449219 -0.23777344 12.09960938 -0.26367188 C20.70160402 -0.35889691 28.39977084 1.48450518 35.13671875 7.046875 C41.95677687 14.19578288 43.48164152 21.69936365 43.375 31.25 C43.29822139 34.17279732 43.16492571 37.08020416 43 40 C44.093125 40.103125 45.18625 40.20625 46.3125 40.3125 C51.03530081 41.19302218 51.03530081 41.19302218 53 44 C53.38818359 46.84741211 53.38818359 46.84741211 53.3984375 50.27734375 C53.40423828 52.13069336 53.40423828 52.13069336 53.41015625 54.02148438 C53.39855469 55.31376953 53.38695312 56.60605469 53.375 57.9375 C53.38660156 59.22591797 53.39820313 60.51433594 53.41015625 61.84179688 C53.40628906 63.07865234 53.40242188 64.31550781 53.3984375 65.58984375 C53.39505371 66.72284912 53.39166992 67.85585449 53.38818359 69.02319336 C52.96248802 72.28766262 52.28206182 73.66857751 50 76 C47.30469001 76.8039548 44.83352598 76.81419502 42 77 C41.67 76.34 41.34 75.68 41 75 C40.01 74.67 39.02 74.34 38 74 C36.88499497 68.5865779 36.83218392 63.31718271 36.7890625 57.81640625 C36.761002 55.81704899 36.73233759 53.81770013 36.703125 51.81835938 C36.66186275 48.68709479 36.62494529 45.55598853 36.59863281 42.42456055 C36.57094914 39.38818627 36.52509197 36.35250953 36.4765625 33.31640625 C36.47330963 32.38703751 36.47005676 31.45766876 36.46670532 30.50013733 C36.32012009 22.70443195 34.60187838 16.76193205 29 11 C23.19475954 7.02287546 16.90534309 7.44642326 10.125 7.3125 C8.9596875 7.27833984 7.794375 7.24417969 6.59375 7.20898438 C3.72926282 7.12680646 0.86507015 7.05755579 -2 7 C-1.34 4.69 -0.68 2.38 0 0 Z " fill="#AAC8C6" transform="translate(210,55)"/>
<path d="M0 0 C5.13308791 2.61320839 8.1797908 5.53937241 10 11 C10.3684431 16.61875724 10.19190228 20.15711379 7 25 C2.60628126 29.06418983 -0.83164815 30.39173138 -6.875 30.26953125 C-10.56382866 29.80164673 -13.24620094 28.48887661 -16 26 C-19.43120373 21.33396779 -20.84383459 16.80136278 -20 11 C-16.54761769 1.80657745 -9.51457642 -1.5470856 0 0 Z " fill="#2782A4" transform="translate(227,89)"/>
<path d="M0 0 C3.97824426 2.09470186 6.49872573 4.05507076 8.02734375 8.28125 C8.55139876 13.17489045 8.70038543 17.61635742 6.83984375 22.21875 C2.75150951 26.87099241 -0.55579852 29.08314691 -6.78515625 29.59375 C-11.18863203 29.52103205 -13.60357198 28.19091369 -16.97265625 25.28125 C-20.95104402 20.88408457 -21.55058164 17.3408745 -21.29296875 11.61328125 C-20.675631 7.11876128 -18.76444292 4.99385801 -15.47265625 2.03125 C-10.82408419 -1.22275044 -5.34771696 -1.94847509 0 0 Z " fill="#267FA2" transform="translate(172.97265625,89.71875)"/>
<path d="M0 0 C4.021875 -0.0928125 4.021875 -0.0928125 8.125 -0.1875 C8.95789551 -0.21481201 9.79079102 -0.24212402 10.64892578 -0.27026367 C16.67562881 -0.33713117 20.63066656 1.06712272 25.375 4.9375 C27.95325404 9.79651723 27.74500466 14.62106633 27 20 C24.90545347 23.74026166 22.89106792 25.37532403 19 27 C16.80175781 27.22705078 16.80175781 27.22705078 14.453125 27.1953125 C13.69161133 27.19031738 12.93009766 27.18532227 12.14550781 27.18017578 C10.71223145 27.15286377 10.71223145 27.15286377 9.25 27.125 C4.67125 27.063125 4.67125 27.063125 0 27 C0 18.09 0 9.18 0 0 Z " fill="#FDFDFD" transform="translate(566,164)"/>
<path d="M0 0 C0.495 1.485 0.495 1.485 1 3 C-0.1796875 4.97265625 -0.1796875 4.97265625 -1.875 7.0625 C-4.16160469 9.88748028 -4.16160469 9.88748028 -6 13 C-6.99 13 -7.98 13 -9 13 C-9.28875 13.5775 -9.5775 14.155 -9.875 14.75 C-10.91666667 16.83333333 -11.95833333 18.91666667 -13 21 C-13.66 21 -14.32 21 -15 21 C-15.08636719 21.72574219 -15.17273438 22.45148438 -15.26171875 23.19921875 C-16.66579925 28.52580986 -20.51355946 32.0005305 -25 35 C-31.10417627 36.28102814 -36.34299212 35.52913674 -42 33 C-42 32.34 -42 31.68 -42 31 C-42.66 31 -43.32 31 -44 31 C-44.433125 29.824375 -44.433125 29.824375 -44.875 28.625 C-45.84912254 25.90328368 -45.84912254 25.90328368 -48 24 C-48 18.76661268 -44.32156875 14.7429618 -41 11 C-37.38742702 8.59161801 -34.25399546 6.91157046 -30 6 C-30 7.65 -30 9.3 -30 11 C-29.34 11 -28.68 11 -28 11 C-27.5875 11.78375 -27.175 12.5675 -26.75 13.375 C-25.14583333 16.14583333 -25.14583333 16.14583333 -22.375 17.75 C-18.20975678 18.05853654 -17.44396564 17.16168654 -14.25 14.625 C-13.49203125 13.95726562 -12.7340625 13.28953125 -11.953125 12.6015625 C-10 11 -10 11 -8 11 C-7.60167969 10.12601563 -7.60167969 10.12601563 -7.1953125 9.234375 C-5.96697004 6.93825772 -4.59685061 5.19643982 -2.875 3.25 C-2.33617187 2.63640625 -1.79734375 2.0228125 -1.2421875 1.390625 C-0.83226562 0.93171875 -0.42234375 0.4728125 0 0 Z " fill="#F2BD3A" transform="translate(249,203)"/>
<path d="M0 0 C1.21641174 -0.01418472 1.21641174 -0.01418472 2.45739746 -0.02865601 C3.76529236 -0.01954697 3.76529236 -0.01954697 5.09960938 -0.01025391 C6.44762634 -0.01455917 6.44762634 -0.01455917 7.82287598 -0.01895142 C9.72258128 -0.02099256 11.62230758 -0.01545919 13.52197266 -0.00292969 C16.43244347 0.01312339 19.34152558 -0.00277653 22.25195312 -0.02197266 C24.09700828 -0.01999023 25.94206257 -0.01614658 27.78710938 -0.01025391 C28.65903931 -0.0163266 29.53096924 -0.02239929 30.42932129 -0.02865601 C31.24026245 -0.01919952 32.05120361 -0.00974304 32.88671875 0 C33.5993689 0.00238678 34.31201904 0.00477356 35.04626465 0.00723267 C37.53176482 0.50633984 38.4441897 1.37039162 39.94335938 3.38818359 C39.81835938 6.45068359 39.81835938 6.45068359 38.94335938 9.38818359 C34.99835638 12.01818559 31.58529923 11.6938748 27.00585938 11.68896484 C26.12937744 11.69324997 25.25289551 11.6975351 24.34985352 11.70195007 C22.49724186 11.70769155 20.64460766 11.70819497 18.79199219 11.70385742 C15.95403736 11.70069549 13.11712294 11.7241652 10.27929688 11.74951172 C8.47981903 11.75178449 6.68033837 11.75248831 4.88085938 11.75146484 C4.03080322 11.76067459 3.18074707 11.76988434 2.30493164 11.77937317 C-3.62207121 11.73269583 -3.62207121 11.73269583 -5.78100586 10.02116394 C-7.05664062 8.38818359 -7.05664062 8.38818359 -7.43164062 5.88818359 C-6.75855437 1.40094187 -4.34964567 0.01456766 0 0 Z " fill="#2F5163" transform="translate(178.056640625,132.61181640625)"/>
<path d="M0 0 C1.91419796 3.47981949 3.02039106 7.05142113 4.1640625 10.84765625 C4.36099701 11.50076279 4.55793152 12.15386932 4.76083374 12.82676697 C5.17440704 14.20208057 5.58612509 15.57795328 5.99609375 16.9543457 C6.6244166 19.0605444 7.26103807 21.1641109 7.8984375 23.26757812 C8.29998104 24.60662044 8.70103943 25.94580835 9.1015625 27.28515625 C9.46588379 28.50082275 9.83020508 29.71648926 10.20556641 30.96899414 C11 34 11 34 11 37 C3.74 37 -3.52 37 -11 37 C-9.26446429 29.19008929 -7.22028636 21.65284729 -4.9375 14 C-4.57333984 12.76121094 -4.20917969 11.52242187 -3.83398438 10.24609375 C-3.31094727 8.48458984 -3.31094727 8.48458984 -2.77734375 6.6875 C-2.46015381 5.61886719 -2.14296387 4.55023438 -1.81616211 3.44921875 C-1 1 -1 1 0 0 Z " fill="#FAFAFA" transform="translate(479,45)"/>
<path d="M0 0 C2.206875 -0.061875 4.41375 -0.12375 6.6875 -0.1875 C8.54955078 -0.23970703 8.54955078 -0.23970703 10.44921875 -0.29296875 C14.21919534 0.01808542 16.00921523 0.75141366 19 3 C21.56632517 6.42176689 21.36435051 9.84640421 21 14 C19.59152491 17.64546493 18.35762171 18.78393688 15 20.8125 C11 22 11 22 0 22 C0 14.74 0 7.48 0 0 Z " fill="#FAFAFA" transform="translate(566,270)"/>
<path d="M0 0 C2.70990368 2.70990368 3.32774826 5.79288589 4.3828125 9.37890625 C4.60194305 10.10617416 4.82107361 10.83344208 5.04684448 11.58274841 C5.74554532 13.90758725 6.43517864 16.23501296 7.125 18.5625 C7.59710178 20.1349322 8.06975139 21.70720004 8.54296875 23.27929688 C8.9900651 24.77068899 9.43669575 26.26222082 9.8828125 27.75390625 C10.09527618 28.46430557 10.30773987 29.1747049 10.52664185 29.90663147 C12 34.88104363 12 34.88104363 12 36 C4.74 36 -2.52 36 -10 36 C-9.2720402 30.90428141 -8.45492805 26.79378608 -6.93359375 21.97265625 C-6.73524429 21.33887558 -6.53689484 20.70509491 -6.33253479 20.05210876 C-5.70591823 18.05393813 -5.07185639 16.05822526 -4.4375 14.0625 C-4.00796626 12.697422 -3.57892522 11.33218886 -3.15039062 9.96679688 C-2.10594441 6.64272049 -1.05481346 3.32080321 0 0 Z " fill="#FBFBFB" transform="translate(496,166)"/>
<path d="M0 0 C2 1 2 1 3.05322266 3.81982422 C3.4197998 5.0523291 3.78637695 6.28483398 4.1640625 7.5546875 C4.36099701 8.21203888 4.55793152 8.86939026 4.76083374 9.54666138 C5.1762893 10.93935097 5.58793978 12.33318041 5.99609375 13.72802734 C6.62114911 15.86185374 7.25875525 17.99161222 7.8984375 20.12109375 C11 30.56256212 11 30.56256212 11 34 C4.07 34 -2.86 34 -10 34 C-7.34701184 22.45169859 -3.66289823 11.26074417 0 0 Z " fill="#F9F9FA" transform="translate(638,367)"/>
<path d="M0 0 C0.66 0 1.32 0 2 0 C3.28903935 4.05453158 4.57055373 8.11134192 5.84521484 12.17041016 C6.27968727 13.55028939 6.71619223 14.92953039 7.15478516 16.30810547 C7.78566197 18.29229173 8.4091403 20.2786751 9.03125 22.265625 C9.40830078 23.45961914 9.78535156 24.65361328 10.17382812 25.88378906 C11 29 11 29 11 33 C4.4 33 -2.2 33 -9 33 C-7.62044648 25.43335797 -5.67113194 18.21142157 -3.375 10.875 C-3.05015625 9.823125 -2.7253125 8.77125 -2.390625 7.6875 C-1.59814686 5.12360014 -0.80120992 2.56118184 0 0 Z " fill="#FAFBFB" transform="translate(243,368)"/>
<path d="M0 0 C7 1 7 1 8.91259766 2.17016602 C10.52797505 4.88845376 10.38903687 7.13283344 10.3984375 10.27734375 C10.40230469 11.51291016 10.40617187 12.74847656 10.41015625 14.02148438 C10.39855469 15.31376953 10.38695312 16.60605469 10.375 17.9375 C10.38660156 19.22591797 10.39820313 20.51433594 10.41015625 21.84179688 C10.40628906 23.07865234 10.40242188 24.31550781 10.3984375 25.58984375 C10.39505371 26.72284912 10.39166992 27.85585449 10.38818359 29.02319336 C9.94702596 32.40623428 9.57743306 33.76045611 7 36 C3.535 36.495 3.535 36.495 0 37 C0 24.79 0 12.58 0 0 Z " fill="#2F5C70" transform="translate(253,95)"/>
<path d="M0 0 C1.14984375 0.00064453 2.2996875 0.00128906 3.484375 0.00195312 C4.68578125 0.01806641 5.8871875 0.03417969 7.125 0.05078125 C8.32640625 0.04755859 9.5278125 0.04433594 10.765625 0.04101562 C19.72446075 0.09625508 19.72446075 0.09625508 23.125 2.36328125 C23.5625 5.30078125 23.5625 5.30078125 23.125 8.36328125 C20.09936719 11.35820143 17.80138373 11.74698353 13.625 11.76171875 C12.573125 11.76558594 11.52125 11.76945312 10.4375 11.7734375 C9.344375 11.76183594 8.25125 11.75023437 7.125 11.73828125 C6.031875 11.74988281 4.93875 11.76148438 3.8125 11.7734375 C2.2346875 11.76763672 2.2346875 11.76763672 0.625 11.76171875 C-0.3340625 11.75833496 -1.293125 11.75495117 -2.28125 11.75146484 C-5.30603017 11.29877278 -6.69187009 10.47866322 -8.875 8.36328125 C-9.3125 5.86328125 -9.3125 5.86328125 -8.875 3.36328125 C-6.40619672 -0.11288936 -4.0938457 -0.01157337 0 0 Z " fill="#1778A8" transform="translate(186.875,51.63671875)"/>
<path d="M0 0 C0 11.88 0 23.76 0 36 C-6 35 -6 35 -8.34399414 33.32226562 C-10.48109081 30.32535224 -10.50234872 28.50535238 -10.49609375 24.84375 C-10.49673828 23.65652344 -10.49738281 22.46929687 -10.49804688 21.24609375 C-10.47806641 20.00988281 -10.45808594 18.77367187 -10.4375 17.5 C-10.44458984 16.26378906 -10.45167969 15.02757812 -10.45898438 13.75390625 C-10.38606232 3.42141159 -10.38606232 3.42141159 -7 0 C-4 -1 -4 -1 0 0 Z " fill="#2B586B" transform="translate(134,96)"/>
<path d="M0 0 C2.80915461 1.27688846 4.50106764 2.31099817 6.3125 4.8125 C7.60725275 8.93216784 7.52656245 11.92294044 5.625 15.8125 C4 18 4 18 2 19 C-2.4851142 19.44851142 -5.71029797 19.68822212 -9.5 17.0625 C-12.40879397 13.49922739 -12.9012054 11.65647701 -12.5859375 7.16015625 C-10.986721 1.26437807 -5.80876434 -0.98872585 0 0 Z " fill="#4C5F6F" transform="translate(197,31)"/>
<path d="M0 0 C0.33 0 0.66 0 1 0 C1 1.98 1 3.96 1 6 C1.639375 6.12375 2.27875 6.2475 2.9375 6.375 C3.9584375 6.684375 3.9584375 6.684375 5 7 C7.89771697 12.79543394 6.82007583 22.95728876 5.1640625 29.1015625 C1.87850283 36.22395025 -3.58972029 41.59736837 -10.6875 44.9375 C-13.71550251 45.90874609 -15.85755758 46.28567658 -19 46 C-18.0409375 45.8453125 -18.0409375 45.8453125 -17.0625 45.6875 C-16.0415625 45.3471875 -16.0415625 45.3471875 -15 45 C-14.67 44.01 -14.34 43.02 -14 42 C-13.01 42 -12.02 42 -11 42 C-10.79375 40.989375 -10.5875 39.97875 -10.375 38.9375 C-9.28082425 35.01273915 -7.24856992 32.65478417 -4.4375 29.7734375 C-1.4150082 26.04460251 -0.74341734 22.1786172 -0.5859375 17.48046875 C-0.54726562 16.45888672 -0.50859375 15.43730469 -0.46875 14.38476562 C-0.4378125 13.32966797 -0.406875 12.27457031 -0.375 11.1875 C-0.33632812 10.11306641 -0.29765625 9.03863281 -0.2578125 7.93164062 C-0.16381387 5.28792912 -0.07815427 2.6442195 0 0 Z " fill="#3D5F64" transform="translate(247,123)"/>
<path d="M0 0 C3.80470451 0.7133821 5.41196019 1.67868421 8 4.5625 C9.35259249 8.85897026 9.33596834 10.80657123 7.5 14.9375 C5 17.5625 5 17.5625 1.5625 18.625 C-2.34309148 18.55648085 -3.97299191 17.96630055 -7 15.5625 C-8.61350378 12.33549243 -8.58705984 9.05150338 -8 5.5625 C-5.55871269 2.11597674 -4.17033126 0.78193711 0 0 Z " fill="#FAFCFC" transform="translate(222,94.4375)"/>
<path d="M0 0 C3.22980084 2.886205 4.77566051 4.77859609 5.5625 9.0625 C4.84171094 12.82662066 3.85564095 14.43724531 1 17 C-2.4375 18.0625 -2.4375 18.0625 -6 18 C-8.80189446 16.23358828 -10.51524911 14.96950178 -12 12 C-12.25491388 8.0913205 -12.23289019 5.29057502 -10 2 C-6.23500419 -0.5099972 -4.45706394 -0.61476744 0 0 Z " fill="#FBFDFD" transform="translate(170,95)"/>
<path d="M0 0 C2.1640625 0.3671875 2.1640625 0.3671875 4 1 C0.47018764 5.14752953 -3.11733851 9.1780051 -7 13 C-10.8814418 16.82929191 -14.44043103 20.87362068 -18 25 C-34.13492712 43.60122353 -34.13492712 43.60122353 -42.8125 44.3125 C-48.06727592 44.2448834 -51.16569631 41.83430369 -54.8125 38.1875 C-56.43442058 35.19975157 -56.67743221 32.35470499 -57 29 C-55 30.25 -55 30.25 -53 32 C-53 33.32 -53 34.64 -53 36 C-52.34 36 -51.68 36 -51 36 C-51 36.66 -51 37.32 -51 38 C-45.27083012 39.23365337 -39.81145446 40.1608215 -34 39 C-29.79594436 36.14148137 -25.85189421 32.65033754 -24.26171875 27.703125 C-24.17535156 27.14109375 -24.08898437 26.5790625 -24 26 C-23.34 26 -22.68 26 -22 26 C-21.896875 25.4225 -21.79375 24.845 -21.6875 24.25 C-20.88350079 21.61872985 -19.86932485 20.01311907 -18 18 C-17.01 18 -16.02 18 -15 18 C-15 17.34 -15 16.68 -15 16 C-13.3203125 14.66796875 -13.3203125 14.66796875 -11.125 13.1875 C-7.65843215 10.68622863 -6.36354792 9.09064375 -5 5 C-2.625 2.125 -2.625 2.125 0 0 Z " fill="#E6A722" transform="translate(258,198)"/>
<path d="M0 0 C6.09498863 -0.42034404 9.12887953 -0.07814737 14 4 C17.82828799 7.56426813 17.69310279 12.04731401 18 17 C16.68 16.34 15.36 15.68 14 15 C14 15.66 14 16.32 14 17 C13.34 17 12.68 17 12 17 C11.72736328 16.16855469 11.72736328 16.16855469 11.44921875 15.3203125 C11.19785156 14.59585938 10.94648438 13.87140625 10.6875 13.125 C10.44386719 12.40570313 10.20023438 11.68640625 9.94921875 10.9453125 C9.03664453 8.66005095 9.03664453 8.66005095 6 7 C2.46049143 6.54814784 0.66673285 6.57890557 -2.375 8.5 C-4.80664499 12.24099229 -4.49174842 14.57426418 -4 19 C-3.08333333 21.08333333 -3.08333333 21.08333333 -1 22 C1.32156597 22.40729228 3.6568787 22.74438677 6 23 C6.66 23.33 7.32 23.66 8 24 C7 25 7 25 3.875 25.1875 C-0.17245263 24.99165552 -3.17631673 24.24854964 -7 23 C-6.67 21.68 -6.34 20.36 -6 19 C-6.99 19 -7.98 19 -9 19 C-9.90661857 9.41334813 -9.90661857 9.41334813 -7.83984375 6.19140625 C-4.857758 3.62116866 -1.89453907 2.3436358 2 2 C1.34 1.34 0.68 0.68 0 0 Z " fill="#287C9F" transform="translate(219,89)"/>
<path d="M0 0 C0.33 0 0.66 0 1 0 C1 17.49 1 34.98 1 53 C-4 50 -4 50 -4.80200195 47.22753906 C-5.15965528 41.39748118 -5.18455054 35.589925 -5.1875 29.75 C-5.19974609 28.45835938 -5.21199219 27.16671875 -5.22460938 25.8359375 C-5.22654297 24.60617188 -5.22847656 23.37640625 -5.23046875 22.109375 C-5.23457764 20.98499023 -5.23868652 19.86060547 -5.24291992 18.70214844 C-5 16 -5 16 -3 14 C-2.34 13.67 -1.68 13.34 -1 13 C-0.53045739 9.95418731 -0.53045739 9.95418731 -0.375 6.4375 C-0.30023438 5.23996094 -0.22546875 4.04242188 -0.1484375 2.80859375 C-0.09945312 1.88175781 -0.05046875 0.95492187 0 0 Z " fill="#85A7A7" transform="translate(252,79)"/>
<path d="M0 0 C2.5 1.625 2.5 1.625 4 4 C3.6875 9.3125 3.6875 9.3125 2 11 C0.19072719 11.12487758 -1.62396107 11.17570846 -3.4375 11.1875 C-4.42621094 11.20167969 -5.41492188 11.21585938 -6.43359375 11.23046875 C-9 11 -9 11 -11 9 C-11.375 6.0625 -11.375 6.0625 -11 3 C-7.94006533 -0.67192161 -4.53695608 -0.56711951 0 0 Z " fill="#274A5F" transform="translate(198,116)"/>
<path d="M0 0 C3 1.5 3 1.5 5 3 C4.01 3.495 4.01 3.495 3 4 C2.34 3.67 1.68 3.34 1 3 C1.33 4.32 1.66 5.64 2 7 C1.31292969 6.98839844 0.62585938 6.97679688 -0.08203125 6.96484375 C-0.98308594 6.95582031 -1.88414062 6.94679688 -2.8125 6.9375 C-3.70582031 6.92589844 -4.59914062 6.91429688 -5.51953125 6.90234375 C-8.13413791 6.88990033 -8.13413791 6.88990033 -11 8 C-12.45577555 15.10123969 -12.45577555 15.10123969 -10.0625 21.625 C-9.381875 22.40875 -8.70125 23.1925 -8 24 C-11.16115776 22.63016497 -11.9927092 22.0109362 -14 19 C-14.1953125 16.30078125 -14.1953125 16.30078125 -14.125 13.3125 C-14.10695312 12.31863281 -14.08890625 11.32476562 -14.0703125 10.30078125 C-14.04710937 9.54152344 -14.02390625 8.78226563 -14 8 C-15.32 7.67 -16.64 7.34 -18 7 C-16.90081184 6.01524786 -15.7954398 5.03739527 -14.6875 4.0625 C-14.07261719 3.51722656 -13.45773438 2.97195312 -12.82421875 2.41015625 C-9.02429998 -0.52725419 -4.61207382 -0.53837438 0 0 Z " fill="#1C759A" transform="translate(171,89)"/>
<path d="M0 0 C6.37850467 -0.49065421 6.37850467 -0.49065421 9.375 1.875 C12.07410941 5.40460461 12.34836112 7.55839569 12 12 C9.73529412 16.63235294 9.73529412 16.63235294 7 18 C2.55636065 18.36423273 0.0285455 18.49284472 -4 16.5625 C-6.90381914 12.84198173 -6.4379812 9.55500448 -6 5 C-5.01 4.67 -4.02 4.34 -3 4 C-3.04125 5.093125 -3.0825 6.18625 -3.125 7.3125 C-3.32074666 11.08892229 -3.32074666 11.08892229 -1 14 C2.16259871 14.40373601 4.14012639 14.54458662 6.875 12.8125 C8.38332602 10.38241919 8.36023622 8.80984248 8 6 C5.23776722 3.23776722 2.79293383 3.42143709 -1 3 C-0.67 2.01 -0.34 1.02 0 0 Z " fill="#1E2A35" transform="translate(192,32)"/>
<path d="M0 0 C-3.29080965 1.91963896 -6.4886095 2.58477225 -10.1953125 3.2421875 C-12.13997735 3.86818575 -12.13997735 3.86818575 -13.203125 5.7421875 C-14.1020102 8.28902889 -14.41260485 10.55966147 -14.625 13.25 C-14.69976562 14.14203125 -14.77453125 15.0340625 -14.8515625 15.953125 C-14.90054688 16.62859375 -14.94953125 17.3040625 -15 18 C-14.01 18 -13.02 18 -12 18 C-12.33 20.31 -12.66 22.62 -13 25 C-17.24750043 19.93040271 -18.55694565 16.68334782 -18 10 C-16.52612851 5.96580318 -14.4197613 3.38160118 -11.25 0.5 C-6.90749956 -1.50423097 -4.62681348 -0.95727176 0 0 Z " fill="#2C85A6" transform="translate(225,90)"/>
<path d="M0 0 C2 1.25 2 1.25 4 3 C4 4.32 4 5.64 4 7 C4.66 7 5.32 7 6 7 C6 7.66 6 8.32 6 9 C6.70125 9.0825 7.4025 9.165 8.125 9.25 C11.66985632 10.17474513 14.07704621 11.82477857 17 14 C17 14.33 17 14.66 17 15 C11.2799241 15.45760607 8.44703273 14.63848132 4 11 C0.71060863 7.71060863 0.43716536 4.54651977 0 0 Z " fill="#E4A321" transform="translate(201,227)"/>
<path d="M0 0 C1.7143618 1.95927063 3.38405168 3.95880212 5 6 C4.34 7.32 3.68 8.64 3 10 C-2.75 9.25 -2.75 9.25 -5 7 C-4.75 3.9375 -4.75 3.9375 -4 1 C-2 0 -2 0 0 0 Z " fill="#FDFAF1" transform="translate(215,222)"/>
<path d="M0 0 C6.89423423 5.21725834 6.89423423 5.21725834 7.91796875 8.96875 C8.76088601 15.07742098 8.76088601 15.07742098 6.3125 18.75 C6.21453125 18.01394531 6.1165625 17.27789062 6.015625 16.51953125 C4.90376289 8.83147808 4.90376289 8.83147808 0.3125 2.75 C-4.19063914 0.06727881 -8.57672357 -0.03568653 -13.6875 0.75 C-16.62144345 2.1037649 -19.14616888 3.76236673 -21.6875 5.75 C-21.0275 4.43 -20.3675 3.11 -19.6875 1.75 C-19.0275 1.75 -18.3675 1.75 -17.6875 1.75 C-17.6875 1.09 -17.6875 0.43 -17.6875 -0.25 C-11.34316077 -2.49695348 -6.32981852 -2.94410164 0 0 Z " fill="#DBF4F1" transform="translate(230.6875,89.25)"/>
<path d="M0 0 C0.33 1.32 0.66 2.64 1 4 C0.01 4.33 -0.98 4.66 -2 5 C-2.44472656 5.88945312 -2.44472656 5.88945312 -2.8984375 6.796875 C-4.32235518 9.64471035 -6.21621327 11.18532566 -8.625 13.25 C-9.44226563 13.95640625 -10.25953125 14.6628125 -11.1015625 15.390625 C-11.72804687 15.92171875 -12.35453125 16.4528125 -13 17 C-13.33 16.01 -13.66 15.02 -14 14 C-12.4375 11.75 -12.4375 11.75 -10 9 C-9.51660156 8.40316406 -9.03320312 7.80632812 -8.53515625 7.19140625 C-8.02855469 6.57136719 -7.52195313 5.95132813 -7 5.3125 C-6.525625 4.73113281 -6.05125 4.14976562 -5.5625 3.55078125 C-3.84411216 1.84528132 -2.20655767 0.96536898 0 0 Z " fill="#F2C03D" transform="translate(246,181)"/>
<path d="M0 0 C0.89267578 0.00644531 1.78535156 0.01289062 2.70507812 0.01953125 C4.09823242 0.04466797 4.09823242 0.04466797 5.51953125 0.0703125 C6.45990234 0.07933594 7.40027344 0.08835938 8.36914062 0.09765625 C10.69036093 0.12122194 13.01106769 0.15412134 15.33203125 0.1953125 C16.32203125 2.5053125 17.31203125 4.8153125 18.33203125 7.1953125 C17.01203125 7.1953125 15.69203125 7.1953125 14.33203125 7.1953125 C14.33203125 5.5453125 14.33203125 3.8953125 14.33203125 2.1953125 C7.07203125 2.1953125 -0.18796875 2.1953125 -7.66796875 2.1953125 C-4.46390413 0.05926942 -3.67196128 -0.04677658 0 0 Z " fill="#B2CDCA" transform="translate(161.66796875,54.8046875)"/>
<path d="M0 0 C9.07692308 -0.30769231 9.07692308 -0.30769231 13 2 C14.1875 4.0625 14.1875 4.0625 15 6 C15.66 6.33 16.32 6.66 17 7 C17 7.99 17 8.98 17 10 C16.34 10 15.68 10 15 10 C15 10.66 15 11.32 15 12 C14.34 12 13.68 12 13 12 C12.81824219 11.44570312 12.63648438 10.89140625 12.44921875 10.3203125 C12.19785156 9.59585938 11.94648438 8.87140625 11.6875 8.125 C11.44386719 7.40570313 11.20023438 6.68640625 10.94921875 5.9453125 C10.03664453 3.66005095 10.03664453 3.66005095 7 2 C4.94290404 1.75944532 4.94290404 1.75944532 2.8125 1.875 C1.554375 1.91625 0.29625 1.9575 -1 2 C-0.67 1.34 -0.34 0.68 0 0 Z M16 2 C16.99 2.495 16.99 2.495 18 3 C18.4140625 5.06640625 18.4140625 5.06640625 18.625 7.5625 C18.69976562 8.38878906 18.77453125 9.21507813 18.8515625 10.06640625 C18.92503906 11.02353516 18.92503906 11.02353516 19 12 C18.67 12 18.34 12 18 12 C17.34 8.7 16.68 5.4 16 2 Z " fill="#187096" transform="translate(218,94)"/>
<path d="M0 0 C-3.64402827 3.32249637 -6.11621308 4.4691536 -11 5 C-11.99 5.33 -12.98 5.66 -14 6 C-13.67 6.99 -13.34 7.98 -13 9 C-14.375 10.5 -14.375 10.5 -16 12 C-16.66 12 -17.32 12 -18 12 C-17.91802415 9.21282111 -17.43764605 7.48247233 -15.55078125 5.40234375 C-10.61388978 1.04374326 -6.74143323 -1.92612378 0 0 Z " fill="#F3BD30" transform="translate(269,152)"/>
<path d="M0 0 C0.66 0.33 1.32 0.66 2 1 C1.38125 1.556875 0.7625 2.11375 0.125 2.6875 C-2.14351286 4.80702782 -2.14351286 4.80702782 -2.6875 7.4375 C-4.82847326 11.6174954 -8.89464896 13.00337023 -13 15 C-13.75539062 15.37769531 -14.51078125 15.75539062 -15.2890625 16.14453125 C-15.85367188 16.42683594 -16.41828125 16.70914063 -17 17 C-13.24172913 12.39611818 -9.37336029 8.41183078 -4.83203125 4.578125 C-3.13809049 3.11895215 -1.55835516 1.60177682 0 0 Z " fill="#F0B626" transform="translate(235,190)"/>
<path d="M0 0 C3.8718417 1.25573244 6.02838671 2.36808079 8 6 C8.1875 8.75 8.1875 8.75 8 11 C6.68 10.34 5.36 9.68 4 9 C4 8.34 4 7.68 4 7 C3.236875 6.71125 2.47375 6.4225 1.6875 6.125 C-1 5 -1 5 -4 3 C-3.01 2.67 -2.02 2.34 -1 2 C-0.34 2.33 0.32 2.66 1 3 C0.67 2.01 0.34 1.02 0 0 Z " fill="#297FA2" transform="translate(227,90)"/>
<path d="M0 0 C0.33 0 0.66 0 1 0 C1.02505615 0.85754883 1.0501123 1.71509766 1.07592773 2.59863281 C1.17123412 5.7893437 1.27045751 8.97990219 1.37231445 12.17041016 C1.4155455 13.54959378 1.45722866 14.92882685 1.49731445 16.30810547 C1.55530403 18.29406938 1.61937723 20.27985269 1.68359375 22.265625 C1.72025146 23.45961914 1.75690918 24.65361328 1.79467773 25.88378906 C1.96336501 28.44398453 2.33380795 30.54755322 3 33 C3.03845443 34.99963028 3.04544281 37.00051633 3 39 C-0.1275933 35.8724067 0.02656105 32.82007954 -0.11352539 28.49487305 C-0.10828857 27.18043213 -0.10305176 25.86599121 -0.09765625 24.51171875 C-0.0962413 23.80852005 -0.09482635 23.10532135 -0.09336853 22.3808136 C-0.08780109 20.14966456 -0.07525475 17.91861836 -0.0625 15.6875 C-0.05748079 14.16862125 -0.05291862 12.64974091 -0.04882812 11.13085938 C-0.03784236 7.42053988 -0.02060034 3.71027999 0 0 Z " fill="#4A737F" transform="translate(133,96)"/>
<path d="M0 0 C0.33 0.99 0.66 1.98 1 3 C-0.29296875 5.0078125 -0.29296875 5.0078125 -2.1875 7.125 C-2.79980469 7.82882813 -3.41210938 8.53265625 -4.04296875 9.2578125 C-6.08877269 11.07902718 -7.32606465 11.60869239 -10 12 C-9.38125 11.278125 -8.7625 10.55625 -8.125 9.8125 C-5.91677661 7.16930489 -5.91677661 7.16930489 -5 4.3125 C-4 2 -4 2 -1.875 0.6875 C-1.25625 0.460625 -0.6375 0.23375 0 0 Z " fill="#F1BD39" transform="translate(290,168)"/>
<path d="M0 0 C0.33 0 0.66 0 1 0 C1 5.28 1 10.56 1 16 C5.627322 16.372678 5.627322 16.372678 8 15 C7.34 16.32 6.68 17.64 6 19 C4.02 19 2.04 19 0 19 C0 12.73 0 6.46 0 0 Z " fill="#234E61" transform="translate(254,112)"/>
<path d="M0 0 C-0.5775 0.25910156 -1.155 0.51820312 -1.75 0.78515625 C-4.17293811 2.09337457 -5.96428504 3.58865731 -8 5.4375 C-10.58061627 7.77114323 -13.18881369 9.94808499 -16 12 C-14.44169988 6.11308843 -9.97981638 2.80958198 -4.9609375 -0.23828125 C-3 -1 -3 -1 0 0 Z " fill="#A6C6C4" transform="translate(154,58)"/>
<path d="M0 0 C0.66 0.33 1.32 0.66 2 1 C1 3 1 3 0 5 C-0.7115625 6.546875 -0.7115625 6.546875 -1.4375 8.125 C-3 11 -3 11 -6 13 C-6 11.35 -6 9.7 -6 8 C-5.34 8 -4.68 8 -4 8 C-3.8453125 7.13375 -3.8453125 7.13375 -3.6875 6.25 C-2.90207202 3.67950842 -1.69495803 2.06342716 0 0 Z " fill="#E9B031" transform="translate(240,216)"/>
<path d="M0 0 C-0.350625 0.61875 -0.70125 1.2375 -1.0625 1.875 C-1.5265625 2.926875 -1.5265625 2.926875 -2 4 C-1.67 4.66 -1.34 5.32 -1 6 C-3.70879335 7.35439668 -6.00933268 7.06501451 -9 7 C-8.01 5.68 -7.02 4.36 -6 3 C-6.99 2.34 -7.98 1.68 -9 1 C-2.25 -1.125 -2.25 -1.125 0 0 Z " fill="#1C789C" transform="translate(173,112)"/>
<path d="M0 0 C0 0.66 0 1.32 0 2 C-1.010625 2.350625 -2.02125 2.70125 -3.0625 3.0625 C-7.67991575 5.00369927 -10.69387232 8.33210759 -14 12 C-14 8.42147401 -12.87324598 7.0747711 -10.5703125 4.4296875 C-7.6668093 1.78619952 -3.9806415 0 0 0 Z " fill="#D3F1F0" transform="translate(158,62)"/>
<path d="M0 0 C0.33 0 0.66 0 1 0 C0.3465701 8.16787373 -3.17131604 12.49513181 -9 18 C-9.66 17.67 -10.32 17.34 -11 17 C-10.278125 16.34 -9.55625 15.68 -8.8125 15 C-4.62522457 10.81272457 -1.19868257 5.8500921 0 0 Z " fill="#213C44" transform="translate(251,147)"/>
<path d="M0 0 C0 0.33 0 0.66 0 1 C-0.78375 1.0825 -1.5675 1.165 -2.375 1.25 C-5.14749104 1.72806339 -5.14749104 1.72806339 -6.3125 4.0625 C-6.539375 4.701875 -6.76625 5.34125 -7 6 C-7.99 6 -8.98 6 -10 6 C-10.33 8.64 -10.66 11.28 -11 14 C-11.33 14 -11.66 14 -12 14 C-12.8981289 6.36590437 -12.8981289 6.36590437 -10.875 3.2890625 C-7.38291369 0.14254723 -4.57825692 -0.54503059 0 0 Z " fill="#5B6971" transform="translate(197,31)"/>
<path d="M0 0 C6.52307692 -0.36923077 6.52307692 -0.36923077 8.9375 1.5 C9.288125 1.995 9.63875 2.49 10 3 C9.01 3.66 8.02 4.32 7 5 C6.67 4.67 6.34 4.34 6 4 C3.67182036 3.63239269 1.3381615 3.29758419 -1 3 C-0.67 2.01 -0.34 1.02 0 0 Z " fill="#283846" transform="translate(192,32)"/>
<path d="M0 0 C0.680625 0.804375 1.36125 1.60875 2.0625 2.4375 C5.51166803 5.44634871 7.52059139 5.66193143 12 6 C12.66 6.33 13.32 6.66 14 7 C13 8 13 8 9.875 8.1875 C5.82754737 7.99165552 2.82368327 7.24854964 -1 6 C-0.67 4.02 -0.34 2.04 0 0 Z " fill="#136A91" transform="translate(213,106)"/>
<path d="M0 0 C0.66 0 1.32 0 2 0 C1.979375 1.093125 1.95875 2.18625 1.9375 3.3125 C1.81455548 6.94384191 1.81455548 6.94384191 3 10 C1.68 10 0.36 10 -1 10 C-1.02689216 8.52093108 -1.04634621 7.04172517 -1.0625 5.5625 C-1.07410156 4.73878906 -1.08570313 3.91507813 -1.09765625 3.06640625 C-1 1 -1 1 0 0 Z " fill="#263541" transform="translate(187,36)"/>
<path d="M0 0 C2.46800047 1.15173355 4.04783565 2.04783565 6 4 C6.484375 6.05859375 6.484375 6.05859375 6.75 8.4375 C6.84796875 9.21996094 6.9459375 10.00242187 7.046875 10.80859375 C7 13 7 13 5 16 C4.89042969 15.26394531 4.78085938 14.52789062 4.66796875 13.76953125 C3.53139879 6.44134769 3.53139879 6.44134769 0 0 Z " fill="#D1EFEC" transform="translate(232,92)"/>
<path d="M0 0 C0.33 1.32 0.66 2.64 1 4 C-1.31 5.98 -3.62 7.96 -6 10 C-4.79157144 5.56909529 -3.48331435 3.01887244 0 0 Z " fill="#E8A826" transform="translate(245,213)"/>
<path d="M0 0 C0.66 0 1.32 0 2 0 C2.36923077 6.52307692 2.36923077 6.52307692 0.5 8.9375 C0.005 9.288125 -0.49 9.63875 -1 10 C-1.125 3.375 -1.125 3.375 0 0 Z " fill="#378FAD" transform="translate(208,97)"/>
<path d="M0 0 C2.875 0.25 2.875 0.25 6 1 C7.375 3.0625 7.375 3.0625 8 5 C7.236875 4.79375 6.47375 4.5875 5.6875 4.375 C2.78114056 3.66608797 2.78114056 3.66608797 0 6 C-0.33 5.34 -0.66 4.68 -1 4 C-0.34 4 0.32 4 1 4 C0.67 2.68 0.34 1.36 0 0 Z " fill="#2F85A7" transform="translate(172,92)"/>
<path d="M0 0 C0.66 0.33 1.32 0.66 2 1 C-0.97 3.97 -3.94 6.94 -7 10 C-7.33 9.01 -7.66 8.02 -8 7 C-5.36 4.69 -2.72 2.38 0 0 Z " fill="#E39C11" transform="translate(254,205)"/>
<path d="M0 0 C1.27222115 2.54444231 0.78641005 3.32620582 0 6 C-0.2784375 7.11375 -0.2784375 7.11375 -0.5625 8.25 C-0.706875 8.8275 -0.85125 9.405 -1 10 C-1.66 9.34 -2.32 8.68 -3 8 C-2.64700993 4.55834679 -1.95418308 2.93127462 0 0 Z " fill="#ECB32B" transform="translate(204,219)"/>
<path d="M0 0 C0.99 0.33 1.98 0.66 3 1 C-0.465 3.97 -0.465 3.97 -4 7 C-4 4 -4 4 -2 1.8125 C-1.34 1.214375 -0.68 0.61625 0 0 Z " fill="#35545A" transform="translate(242,154)"/>
<path d="M0 0 C0.66 0.66 1.32 1.32 2 2 C1.34 3.65 0.68 5.3 0 7 C-0.99 7 -1.98 7 -3 7 C-2.25 2.25 -2.25 2.25 0 0 Z " fill="#32687D" transform="translate(127,96)"/>
<path d="M0 0 C-0.99 0.33 -1.98 0.66 -3 1 C-3 1.66 -3 2.32 -3 3 C-4.65 3 -6.3 3 -8 3 C-8.33 2.34 -8.66 1.68 -9 1 C-6.04335481 -0.4783226 -3.25770263 -0.06032783 0 0 Z " fill="#3287A8" transform="translate(170,90)"/>
<path d="M0 0 C1.65 1.32 3.3 2.64 5 4 C1.625 4.125 1.625 4.125 -2 4 C-2.66 3.34 -3.32 2.68 -4 2 C-2.68 2 -1.36 2 0 2 C0 1.34 0 0.68 0 0 Z " fill="#E39E16" transform="translate(213,238)"/>
</svg>
